<svg xmlns="http://www.w3.org/2000/svg" xmlns:xlink="http://www.w3.org/1999/xlink" width="1024" zoomAndPan="magnify" viewBox="0 0 768 767.999994" height="1024" preserveAspectRatio="xMidYMid meet" version="1.0"><defs><clipPath id="57cb2ce840"><path d="M 153.09375 342 L 404.738281 342 L 404.738281 678.253906 L 153.09375 678.253906 Z M 153.09375 342 " clip-rule="nonzero"/></clipPath><clipPath id="0d524ba99f"><path d="M 281.378906 343.523438 L 404.277344 484.988281 C 404.714844 485.492188 404.820312 486.207031 404.542969 486.816406 C 404.265625 487.425781 403.65625 487.820312 402.988281 487.820312 L 336.921875 487.820312 C 335.929688 487.820312 334.972656 488.214844 334.269531 488.917969 C 333.566406 489.621094 333.171875 490.574219 333.171875 491.570312 L 333.171875 674.503906 C 333.171875 675.496094 332.777344 676.449219 332.074219 677.152344 C 331.371094 677.855469 330.417969 678.253906 329.421875 678.253906 L 228.414062 678.253906 C 227.417969 678.253906 226.464844 677.855469 225.761719 677.152344 C 225.058594 676.449219 224.664062 675.496094 224.664062 674.503906 L 224.664062 491.570312 C 224.664062 490.574219 224.265625 489.621094 223.5625 488.917969 C 222.859375 488.214844 221.90625 487.820312 220.914062 487.820312 L 154.847656 487.820312 C 154.179688 487.820312 153.570312 487.425781 153.292969 486.816406 C 153.015625 486.207031 153.117188 485.492188 153.558594 484.988281 L 276.457031 343.523438 C 277.078125 342.808594 277.972656 342.402344 278.917969 342.402344 C 279.859375 342.402344 280.757812 342.808594 281.378906 343.523438 Z M 281.378906 343.523438 " clip-rule="nonzero"/></clipPath><clipPath id="0ed1378d99"><path d="M 0.09375 0.238281 L 251.738281 0.238281 L 251.738281 336.253906 L 0.09375 336.253906 Z M 0.09375 0.238281 " clip-rule="nonzero"/></clipPath><clipPath id="2e59f7c234"><path d="M 128.378906 1.523438 L 251.277344 142.988281 C 251.714844 143.492188 251.820312 144.207031 251.542969 144.816406 C 251.265625 145.425781 250.65625 145.820312 249.988281 145.820312 L 183.921875 145.820312 C 182.929688 145.820312 181.972656 146.214844 181.269531 146.917969 C 180.566406 147.621094 180.171875 148.574219 180.171875 149.570312 L 180.171875 332.503906 C 180.171875 333.496094 179.777344 334.449219 179.074219 335.152344 C 178.371094 335.855469 177.417969 336.253906 176.421875 336.253906 L 75.414062 336.253906 C 74.417969 336.253906 73.464844 335.855469 72.761719 335.152344 C 72.058594 334.449219 71.664062 333.496094 71.664062 332.503906 L 71.664062 149.570312 C 71.664062 148.574219 71.265625 147.621094 70.5625 146.917969 C 69.859375 146.214844 68.90625 145.820312 67.914062 145.820312 L 1.847656 145.820312 C 1.179688 145.820312 0.570312 145.425781 0.292969 144.816406 C 0.015625 144.207031 0.117188 143.492188 0.558594 142.988281 L 123.457031 1.523438 C 124.078125 0.808594 124.972656 0.402344 125.917969 0.402344 C 126.859375 0.402344 127.757812 0.808594 128.378906 1.523438 Z M 128.378906 1.523438 " clip-rule="nonzero"/></clipPath><clipPath id="6a3aa1a71d"><rect x="0" width="252" y="0" height="337"/></clipPath><clipPath id="0acc0bba4a"><path d="M 691 117 L 709.898438 117 L 709.898438 651 L 691 651 Z M 691 117 " clip-rule="nonzero"/></clipPath><clipPath id="bd6506df75"><path d="M 57.398438 176.648438 L 57.398438 591.351562 C 57.398438 657.210938 110.789062 710.601562 176.648438 710.601562 L 591.351562 710.601562 C 657.210938 710.601562 710.601562 657.210938 710.601562 591.351562 L 710.601562 176.648438 C 710.601562 110.789062 657.210938 57.398438 591.351562 57.398438 L 176.648438 57.398438 C 110.789062 57.398438 57.398438 110.789062 57.398438 176.648438 Z M 57.398438 176.648438 " clip-rule="nonzero"/></clipPath><clipPath id="eb41129472"><path d="M 177.546875 58.296875 L 590.453125 58.296875 C 656.3125 58.296875 709.703125 111.6875 709.703125 177.546875 L 709.703125 590.453125 C 709.703125 656.3125 656.3125 709.703125 590.453125 709.703125 L 177.546875 709.703125 C 111.6875 709.703125 58.296875 656.3125 58.296875 590.453125 L 58.296875 177.546875 C 58.296875 111.6875 111.6875 58.296875 177.546875 58.296875 Z M 177.546875 58.296875 " clip-rule="nonzero"/></clipPath><clipPath id="4e53093fb9"><path d="M 58.148438 117 L 77 117 L 77 651 L 58.148438 651 Z M 58.148438 117 " clip-rule="nonzero"/></clipPath><clipPath id="f0c216664d"><path d="M 57.398438 176.648438 L 57.398438 591.351562 C 57.398438 657.210938 110.789062 710.601562 176.648438 710.601562 L 591.351562 710.601562 C 657.210938 710.601562 710.601562 657.210938 710.601562 591.351562 L 710.601562 176.648438 C 710.601562 110.789062 657.210938 57.398438 591.351562 57.398438 L 176.648438 57.398438 C 110.789062 57.398438 57.398438 110.789062 57.398438 176.648438 Z M 57.398438 176.648438 " clip-rule="nonzero"/></clipPath><clipPath id="6b34a71a29"><path d="M 177.546875 58.296875 L 590.453125 58.296875 C 656.3125 58.296875 709.703125 111.6875 709.703125 177.546875 L 709.703125 590.453125 C 709.703125 656.3125 656.3125 709.703125 590.453125 709.703125 L 177.546875 709.703125 C 111.6875 709.703125 58.296875 656.3125 58.296875 590.453125 L 58.296875 177.546875 C 58.296875 111.6875 111.6875 58.296875 177.546875 58.296875 Z M 177.546875 58.296875 " clip-rule="nonzero"/></clipPath><clipPath id="bcc30c2c3a"><path d="M 117 58.148438 L 651 58.148438 L 651 77 L 117 77 Z M 117 58.148438 " clip-rule="nonzero"/></clipPath><clipPath id="15fea85ef4"><path d="M 57.398438 176.648438 L 57.398438 591.351562 C 57.398438 657.210938 110.789062 710.601562 176.648438 710.601562 L 591.351562 710.601562 C 657.210938 710.601562 710.601562 657.210938 710.601562 591.351562 L 710.601562 176.648438 C 710.601562 110.789062 657.210938 57.398438 591.351562 57.398438 L 176.648438 57.398438 C 110.789062 57.398438 57.398438 110.789062 57.398438 176.648438 Z M 57.398438 176.648438 " clip-rule="nonzero"/></clipPath><clipPath id="d8c65ead21"><path d="M 177.546875 58.296875 L 590.453125 58.296875 C 656.3125 58.296875 709.703125 111.6875 709.703125 177.546875 L 709.703125 590.453125 C 709.703125 656.3125 656.3125 709.703125 590.453125 709.703125 L 177.546875 709.703125 C 111.6875 709.703125 58.296875 656.3125 58.296875 590.453125 L 58.296875 177.546875 C 58.296875 111.6875 111.6875 58.296875 177.546875 58.296875 Z M 177.546875 58.296875 " clip-rule="nonzero"/></clipPath><clipPath id="885cd2d79f"><path d="M 117 691 L 651 691 L 651 709.898438 L 117 709.898438 Z M 117 691 " clip-rule="nonzero"/></clipPath><clipPath id="e19e5a23b7"><path d="M 57.398438 176.648438 L 57.398438 591.351562 C 57.398438 657.210938 110.789062 710.601562 176.648438 710.601562 L 591.351562 710.601562 C 657.210938 710.601562 710.601562 657.210938 710.601562 591.351562 L 710.601562 176.648438 C 710.601562 110.789062 657.210938 57.398438 591.351562 57.398438 L 176.648438 57.398438 C 110.789062 57.398438 57.398438 110.789062 57.398438 176.648438 Z M 57.398438 176.648438 " clip-rule="nonzero"/></clipPath><clipPath id="b058361247"><path d="M 177.546875 58.296875 L 590.453125 58.296875 C 656.3125 58.296875 709.703125 111.6875 709.703125 177.546875 L 709.703125 590.453125 C 709.703125 656.3125 656.3125 709.703125 590.453125 709.703125 L 177.546875 709.703125 C 111.6875 709.703125 58.296875 656.3125 58.296875 590.453125 L 58.296875 177.546875 C 58.296875 111.6875 111.6875 58.296875 177.546875 58.296875 Z M 177.546875 58.296875 " clip-rule="nonzero"/></clipPath><clipPath id="a918389217"><path d="M 650 58.148438 L 709.898438 58.148438 L 709.898438 118 L 650 118 Z M 650 58.148438 " clip-rule="nonzero"/></clipPath><clipPath id="ff644b71d5"><path d="M 57.398438 176.648438 L 57.398438 591.351562 C 57.398438 657.210938 110.789062 710.601562 176.648438 710.601562 L 591.351562 710.601562 C 657.210938 710.601562 710.601562 657.210938 710.601562 591.351562 L 710.601562 176.648438 C 710.601562 110.789062 657.210938 57.398438 591.351562 57.398438 L 176.648438 57.398438 C 110.789062 57.398438 57.398438 110.789062 57.398438 176.648438 Z M 57.398438 176.648438 " clip-rule="nonzero"/></clipPath><clipPath id="b93571843f"><path d="M 177.546875 58.296875 L 590.453125 58.296875 C 656.3125 58.296875 709.703125 111.6875 709.703125 177.546875 L 709.703125 590.453125 C 709.703125 656.3125 656.3125 709.703125 590.453125 709.703125 L 177.546875 709.703125 C 111.6875 709.703125 58.296875 656.3125 58.296875 590.453125 L 58.296875 177.546875 C 58.296875 111.6875 111.6875 58.296875 177.546875 58.296875 Z M 177.546875 58.296875 " clip-rule="nonzero"/></clipPath><clipPath id="a6ce979d86"><path d="M 58.148438 58.148438 L 118 58.148438 L 118 118 L 58.148438 118 Z M 58.148438 58.148438 " clip-rule="nonzero"/></clipPath><clipPath id="91f4620d2d"><path d="M 57.398438 176.648438 L 57.398438 591.351562 C 57.398438 657.210938 110.789062 710.601562 176.648438 710.601562 L 591.351562 710.601562 C 657.210938 710.601562 710.601562 657.210938 710.601562 591.351562 L 710.601562 176.648438 C 710.601562 110.789062 657.210938 57.398438 591.351562 57.398438 L 176.648438 57.398438 C 110.789062 57.398438 57.398438 110.789062 57.398438 176.648438 Z M 57.398438 176.648438 " clip-rule="nonzero"/></clipPath><clipPath id="07bed91adf"><path d="M 177.546875 58.296875 L 590.453125 58.296875 C 656.3125 58.296875 709.703125 111.6875 709.703125 177.546875 L 709.703125 590.453125 C 709.703125 656.3125 656.3125 709.703125 590.453125 709.703125 L 177.546875 709.703125 C 111.6875 709.703125 58.296875 656.3125 58.296875 590.453125 L 58.296875 177.546875 C 58.296875 111.6875 111.6875 58.296875 177.546875 58.296875 Z M 177.546875 58.296875 " clip-rule="nonzero"/></clipPath><clipPath id="0fb75d0a69"><path d="M 650 650 L 709.898438 650 L 709.898438 709.898438 L 650 709.898438 Z M 650 650 " clip-rule="nonzero"/></clipPath><clipPath id="ccf52ca459"><path d="M 57.398438 176.648438 L 57.398438 591.351562 C 57.398438 657.210938 110.789062 710.601562 176.648438 710.601562 L 591.351562 710.601562 C 657.210938 710.601562 710.601562 657.210938 710.601562 591.351562 L 710.601562 176.648438 C 710.601562 110.789062 657.210938 57.398438 591.351562 57.398438 L 176.648438 57.398438 C 110.789062 57.398438 57.398438 110.789062 57.398438 176.648438 Z M 57.398438 176.648438 " clip-rule="nonzero"/></clipPath><clipPath id="451b5dae38"><path d="M 177.546875 58.296875 L 590.453125 58.296875 C 656.3125 58.296875 709.703125 111.6875 709.703125 177.546875 L 709.703125 590.453125 C 709.703125 656.3125 656.3125 709.703125 590.453125 709.703125 L 177.546875 709.703125 C 111.6875 709.703125 58.296875 656.3125 58.296875 590.453125 L 58.296875 177.546875 C 58.296875 111.6875 111.6875 58.296875 177.546875 58.296875 Z M 177.546875 58.296875 " clip-rule="nonzero"/></clipPath><clipPath id="d782989d91"><path d="M 58.148438 650 L 118 650 L 118 709.898438 L 58.148438 709.898438 Z M 58.148438 650 " clip-rule="nonzero"/></clipPath><clipPath id="0a39535010"><path d="M 57.398438 176.648438 L 57.398438 591.351562 C 57.398438 657.210938 110.789062 710.601562 176.648438 710.601562 L 591.351562 710.601562 C 657.210938 710.601562 710.601562 657.210938 710.601562 591.351562 L 710.601562 176.648438 C 710.601562 110.789062 657.210938 57.398438 591.351562 57.398438 L 176.648438 57.398438 C 110.789062 57.398438 57.398438 110.789062 57.398438 176.648438 Z M 57.398438 176.648438 " clip-rule="nonzero"/></clipPath><clipPath id="50e175970f"><path d="M 177.546875 58.296875 L 590.453125 58.296875 C 656.3125 58.296875 709.703125 111.6875 709.703125 177.546875 L 709.703125 590.453125 C 709.703125 656.3125 656.3125 709.703125 590.453125 709.703125 L 177.546875 709.703125 C 111.6875 709.703125 58.296875 656.3125 58.296875 590.453125 L 58.296875 177.546875 C 58.296875 111.6875 111.6875 58.296875 177.546875 58.296875 Z M 177.546875 58.296875 " clip-rule="nonzero"/></clipPath><clipPath id="1c0df0e358"><path d="M 57.398438 57.398438 L 710.636719 57.398438 L 710.636719 710.636719 L 57.398438 710.636719 Z M 57.398438 57.398438 " clip-rule="nonzero"/></clipPath><clipPath id="3df97b25f5"><path d="M 57.398438 176.648438 L 57.398438 591.351562 C 57.398438 657.210938 110.789062 710.601562 176.648438 710.601562 L 591.351562 710.601562 C 657.210938 710.601562 710.601562 657.210938 710.601562 591.351562 L 710.601562 176.648438 C 710.601562 110.789062 657.210938 57.398438 591.351562 57.398438 L 176.648438 57.398438 C 110.789062 57.398438 57.398438 110.789062 57.398438 176.648438 Z M 57.398438 176.648438 " clip-rule="nonzero"/></clipPath><clipPath id="03227560a3"><path d="M 57.398438 176.644531 L 57.398438 591.34375 C 57.398438 657.199219 110.789062 710.589844 176.644531 710.589844 L 591.34375 710.589844 C 657.199219 710.589844 710.589844 657.199219 710.589844 591.34375 L 710.589844 176.644531 C 710.589844 110.789062 657.199219 57.398438 591.34375 57.398438 L 176.644531 57.398438 C 110.789062 57.398438 57.398438 110.789062 57.398438 176.644531 Z M 57.398438 176.644531 " clip-rule="nonzero"/></clipPath><clipPath id="e89e80321a"><path d="M 383.53125 136.105469 L 642.277344 136.105469 L 642.277344 678.246094 L 383.53125 678.246094 Z M 383.53125 136.105469 " clip-rule="nonzero"/></clipPath><clipPath id="2ca8ef9d4a"><path d="M 515.402344 137.777344 L 641.832031 279.3125 C 642.273438 279.804688 642.382812 280.511719 642.113281 281.117188 C 641.84375 281.71875 641.242188 282.109375 640.582031 282.109375 L 574.519531 282.109375 C 573.523438 282.109375 572.570312 282.503906 571.867188 283.207031 C 571.164062 283.910156 570.769531 284.863281 570.769531 285.859375 L 570.769531 674.496094 C 570.769531 675.492188 570.371094 676.445312 569.667969 677.148438 C 568.964844 677.851562 568.011719 678.246094 567.019531 678.246094 L 458.789062 678.246094 C 457.796875 678.246094 456.839844 677.851562 456.136719 677.148438 C 455.433594 676.445312 455.039062 675.492188 455.039062 674.496094 L 455.039062 285.859375 C 455.039062 284.863281 454.644531 283.910156 453.941406 283.207031 C 453.238281 282.503906 452.285156 282.109375 451.289062 282.109375 L 385.226562 282.109375 C 384.5625 282.109375 383.964844 281.71875 383.695312 281.117188 C 383.421875 280.511719 383.53125 279.804688 383.972656 279.3125 L 510.40625 137.777344 C 511.042969 137.066406 511.949219 136.660156 512.902344 136.660156 C 513.859375 136.660156 514.765625 137.066406 515.402344 137.777344 Z M 515.402344 137.777344 " clip-rule="nonzero"/></clipPath><clipPath id="b7b7726c9b"><path d="M 0.53125 0.558594 L 259.277344 0.558594 L 259.277344 542.246094 L 0.53125 542.246094 Z M 0.53125 0.558594 " clip-rule="nonzero"/></clipPath><clipPath id="60eed18214"><path d="M 132.402344 1.777344 L 258.832031 143.3125 C 259.273438 143.804688 259.382812 144.511719 259.113281 145.117188 C 258.84375 145.71875 258.242188 146.109375 257.582031 146.109375 L 191.519531 146.109375 C 190.523438 146.109375 189.570312 146.503906 188.867188 147.207031 C 188.164062 147.910156 187.769531 148.863281 187.769531 149.859375 L 187.769531 538.496094 C 187.769531 539.492188 187.371094 540.445312 186.667969 541.148438 C 185.964844 541.851562 185.011719 542.246094 184.019531 542.246094 L 75.789062 542.246094 C 74.796875 542.246094 73.839844 541.851562 73.136719 541.148438 C 72.433594 540.445312 72.039062 539.492188 72.039062 538.496094 L 72.039062 149.859375 C 72.039062 148.863281 71.644531 147.910156 70.941406 147.207031 C 70.238281 146.503906 69.285156 146.109375 68.289062 146.109375 L 2.226562 146.109375 C 1.5625 146.109375 0.964844 145.71875 0.695312 145.117188 C 0.421875 144.511719 0.53125 143.804688 0.972656 143.3125 L 127.40625 1.777344 C 128.042969 1.066406 128.949219 0.660156 129.902344 0.660156 C 130.859375 0.660156 131.765625 1.066406 132.402344 1.777344 Z M 132.402344 1.777344 " clip-rule="nonzero"/></clipPath><clipPath id="a19b60121c"><rect x="0" width="260" y="0" height="543"/></clipPath></defs><g clip-path="url(#57cb2ce840)"><g clip-path="url(#0d524ba99f)"><g transform="matrix(1, 0, 0, 1, 153, 342)"><g clip-path="url(#6a3aa1a71d)"><g clip-path="url(#0ed1378d99)"><g clip-path="url(#2e59f7c234)"><path fill="#44a9ed" d="M 253.738281 336.253906 L -1.902344 336.253906 L -1.902344 -1.269531 L 253.738281 -1.269531 Z M 253.738281 336.253906 " fill-opacity="1" fill-rule="nonzero"/></g></g></g></g></g></g><g clip-path="url(#0acc0bba4a)"><g clip-path="url(#bd6506df75)"><g clip-path="url(#eb41129472)"><path fill="#0d2a66" d="M 691.070312 117.253906 L 710.589844 117.253906 L 710.589844 650.734375 L 691.070312 650.734375 Z M 691.070312 117.253906 " fill-opacity="1" fill-rule="nonzero"/></g></g></g><g clip-path="url(#4e53093fb9)"><g clip-path="url(#f0c216664d)"><g clip-path="url(#6b34a71a29)"><path fill="#0d2a66" d="M 57.398438 117.253906 L 76.917969 117.253906 L 76.917969 650.734375 L 57.398438 650.734375 Z M 57.398438 117.253906 " fill-opacity="1" fill-rule="nonzero"/></g></g></g><g clip-path="url(#bcc30c2c3a)"><g clip-path="url(#15fea85ef4)"><g clip-path="url(#d8c65ead21)"><path fill="#0d2a66" d="M 117.253906 57.398438 L 650.734375 57.398438 L 650.734375 76.917969 L 117.253906 76.917969 Z M 117.253906 57.398438 " fill-opacity="1" fill-rule="nonzero"/></g></g></g><g clip-path="url(#885cd2d79f)"><g clip-path="url(#e19e5a23b7)"><g clip-path="url(#b058361247)"><path fill="#0d2a66" d="M 117.253906 691.074219 L 650.734375 691.074219 L 650.734375 710.589844 L 117.253906 710.589844 Z M 117.253906 691.074219 " fill-opacity="1" fill-rule="nonzero"/></g></g></g><g clip-path="url(#a918389217)"><g clip-path="url(#ff644b71d5)"><g clip-path="url(#b93571843f)"><path fill="#0d2a66" d="M 691.070312 76.917969 L 691.070312 117.253906 L 710.589844 117.253906 L 710.589844 57.398438 L 650.734375 57.398438 L 650.734375 76.917969 Z M 691.070312 76.917969 " fill-opacity="1" fill-rule="nonzero"/></g></g></g><g clip-path="url(#a6ce979d86)"><g clip-path="url(#91f4620d2d)"><g clip-path="url(#07bed91adf)"><path fill="#0d2a66" d="M 76.917969 76.917969 L 117.253906 76.917969 L 117.253906 57.398438 L 57.398438 57.398438 L 57.398438 117.253906 L 76.917969 117.253906 Z M 76.917969 76.917969 " fill-opacity="1" fill-rule="nonzero"/></g></g></g><g clip-path="url(#0fb75d0a69)"><g clip-path="url(#ccf52ca459)"><g clip-path="url(#451b5dae38)"><path fill="#0d2a66" d="M 691.070312 691.074219 L 650.734375 691.074219 L 650.734375 710.589844 L 710.589844 710.589844 L 710.589844 650.734375 L 691.070312 650.734375 Z M 691.070312 691.074219 " fill-opacity="1" fill-rule="nonzero"/></g></g></g><g clip-path="url(#d782989d91)"><g clip-path="url(#0a39535010)"><g clip-path="url(#50e175970f)"><path fill="#0d2a66" d="M 76.917969 691.074219 L 76.917969 650.734375 L 57.398438 650.734375 L 57.398438 710.589844 L 117.253906 710.589844 L 117.253906 691.074219 Z M 76.917969 691.074219 " fill-opacity="1" fill-rule="nonzero"/></g></g></g><g clip-path="url(#1c0df0e358)"><g clip-path="url(#3df97b25f5)"><g clip-path="url(#03227560a3)"><path stroke-linecap="butt" transform="matrix(0.75, 0, 0, 0.75, 57.398537, 57.398554)" fill="none" stroke-linejoin="miter" d="M -0.000132613 158.994644 L -0.000132613 711.926963 C -0.000132613 799.734259 71.187371 870.921763 158.994667 870.921763 L 711.926986 870.921763 C 799.734282 870.921763 870.921785 799.734259 870.921785 711.926963 L 870.921785 158.994644 C 870.921785 71.187348 799.734282 -0.00015528 711.926986 -0.00015528 L 158.994667 -0.00015528 C 71.187371 -0.00015528 -0.000132613 71.187348 -0.000132613 158.994644 Z M -0.000132613 158.994644 " stroke="#0d2a66" stroke-width="90" stroke-opacity="1" stroke-miterlimit="4"/></g></g></g><g clip-path="url(#e89e80321a)"><g clip-path="url(#2ca8ef9d4a)"><g transform="matrix(1, 0, 0, 1, 383, 136)"><g clip-path="url(#a19b60121c)"><g clip-path="url(#b7b7726c9b)"><g clip-path="url(#60eed18214)"><path fill="#0d2a66" d="M 261.332031 542.246094 L -1.523438 542.246094 L -1.523438 -0.921875 L 261.332031 -0.921875 Z M 261.332031 542.246094 " fill-opacity="1" fill-rule="nonzero"/></g></g></g></g></g></g></svg>