<svg xmlns="http://www.w3.org/2000/svg" xmlns:xlink="http://www.w3.org/1999/xlink" width="1024" zoomAndPan="magnify" viewBox="0 0 768 767.999994" height="1024" preserveAspectRatio="xMidYMid meet" version="1.0"><defs><g/><clipPath id="b45f4398a6"><rect x="0" width="520" y="0" height="197"/></clipPath><clipPath id="6b23b221c5"><path d="M 211 290 L 216.882812 290 L 216.882812 455 L 211 455 Z M 211 290 " clip-rule="nonzero"/></clipPath><clipPath id="dfa78d3148"><path d="M 16.632812 308.90625 L 16.632812 435.867188 C 16.632812 456.160156 33.085938 472.617188 53.382812 472.617188 L 180.339844 472.617188 C 200.636719 472.617188 217.089844 456.160156 217.089844 435.867188 L 217.089844 308.90625 C 217.089844 288.609375 200.636719 272.15625 180.339844 272.15625 L 53.382812 272.15625 C 33.085938 272.15625 16.632812 288.609375 16.632812 308.90625 Z M 16.632812 308.90625 " clip-rule="nonzero"/></clipPath><clipPath id="d8829c6bfa"><path d="M 54.28125 273.054688 L 179.441406 273.054688 C 199.738281 273.054688 216.191406 289.511719 216.191406 309.804688 L 216.191406 434.964844 C 216.191406 455.261719 199.738281 471.714844 179.441406 471.714844 L 54.28125 471.714844 C 33.984375 471.714844 17.53125 455.261719 17.53125 434.964844 L 17.53125 309.804688 C 17.53125 289.511719 33.984375 273.054688 54.28125 273.054688 Z M 54.28125 273.054688 " clip-rule="nonzero"/></clipPath><clipPath id="48b8c0d6ee"><path d="M 17.382812 290 L 23 290 L 23 455 L 17.382812 455 Z M 17.382812 290 " clip-rule="nonzero"/></clipPath><clipPath id="6e75f4d834"><path d="M 16.632812 308.90625 L 16.632812 435.867188 C 16.632812 456.160156 33.085938 472.617188 53.382812 472.617188 L 180.339844 472.617188 C 200.636719 472.617188 217.089844 456.160156 217.089844 435.867188 L 217.089844 308.90625 C 217.089844 288.609375 200.636719 272.15625 180.339844 272.15625 L 53.382812 272.15625 C 33.085938 272.15625 16.632812 288.609375 16.632812 308.90625 Z M 16.632812 308.90625 " clip-rule="nonzero"/></clipPath><clipPath id="13013835e3"><path d="M 54.28125 273.054688 L 179.441406 273.054688 C 199.738281 273.054688 216.191406 289.511719 216.191406 309.804688 L 216.191406 434.964844 C 216.191406 455.261719 199.738281 471.714844 179.441406 471.714844 L 54.28125 471.714844 C 33.984375 471.714844 17.53125 455.261719 17.53125 434.964844 L 17.53125 309.804688 C 17.53125 289.511719 33.984375 273.054688 54.28125 273.054688 Z M 54.28125 273.054688 " clip-rule="nonzero"/></clipPath><clipPath id="14f63c262c"><path d="M 35 273 L 199 273 L 199 279 L 35 279 Z M 35 273 " clip-rule="nonzero"/></clipPath><clipPath id="4ee03913f1"><path d="M 16.632812 308.90625 L 16.632812 435.867188 C 16.632812 456.160156 33.085938 472.617188 53.382812 472.617188 L 180.339844 472.617188 C 200.636719 472.617188 217.089844 456.160156 217.089844 435.867188 L 217.089844 308.90625 C 217.089844 288.609375 200.636719 272.15625 180.339844 272.15625 L 53.382812 272.15625 C 33.085938 272.15625 16.632812 288.609375 16.632812 308.90625 Z M 16.632812 308.90625 " clip-rule="nonzero"/></clipPath><clipPath id="de69347397"><path d="M 54.28125 273.054688 L 179.441406 273.054688 C 199.738281 273.054688 216.191406 289.511719 216.191406 309.804688 L 216.191406 434.964844 C 216.191406 455.261719 199.738281 471.714844 179.441406 471.714844 L 54.28125 471.714844 C 33.984375 471.714844 17.53125 455.261719 17.53125 434.964844 L 17.53125 309.804688 C 17.53125 289.511719 33.984375 273.054688 54.28125 273.054688 Z M 54.28125 273.054688 " clip-rule="nonzero"/></clipPath><clipPath id="fb6a9421e5"><path d="M 35 466 L 199 466 L 199 472 L 35 472 Z M 35 466 " clip-rule="nonzero"/></clipPath><clipPath id="96597a07b1"><path d="M 16.632812 308.90625 L 16.632812 435.867188 C 16.632812 456.160156 33.085938 472.617188 53.382812 472.617188 L 180.339844 472.617188 C 200.636719 472.617188 217.089844 456.160156 217.089844 435.867188 L 217.089844 308.90625 C 217.089844 288.609375 200.636719 272.15625 180.339844 272.15625 L 53.382812 272.15625 C 33.085938 272.15625 16.632812 288.609375 16.632812 308.90625 Z M 16.632812 308.90625 " clip-rule="nonzero"/></clipPath><clipPath id="d2b6fa4117"><path d="M 54.28125 273.054688 L 179.441406 273.054688 C 199.738281 273.054688 216.191406 289.511719 216.191406 309.804688 L 216.191406 434.964844 C 216.191406 455.261719 199.738281 471.714844 179.441406 471.714844 L 54.28125 471.714844 C 33.984375 471.714844 17.53125 455.261719 17.53125 434.964844 L 17.53125 309.804688 C 17.53125 289.511719 33.984375 273.054688 54.28125 273.054688 Z M 54.28125 273.054688 " clip-rule="nonzero"/></clipPath><clipPath id="59c1ffb06f"><path d="M 198 273 L 216.882812 273 L 216.882812 291 L 198 291 Z M 198 273 " clip-rule="nonzero"/></clipPath><clipPath id="437ef90f7f"><path d="M 16.632812 308.90625 L 16.632812 435.867188 C 16.632812 456.160156 33.085938 472.617188 53.382812 472.617188 L 180.339844 472.617188 C 200.636719 472.617188 217.089844 456.160156 217.089844 435.867188 L 217.089844 308.90625 C 217.089844 288.609375 200.636719 272.15625 180.339844 272.15625 L 53.382812 272.15625 C 33.085938 272.15625 16.632812 288.609375 16.632812 308.90625 Z M 16.632812 308.90625 " clip-rule="nonzero"/></clipPath><clipPath id="dd6ff23a8d"><path d="M 54.28125 273.054688 L 179.441406 273.054688 C 199.738281 273.054688 216.191406 289.511719 216.191406 309.804688 L 216.191406 434.964844 C 216.191406 455.261719 199.738281 471.714844 179.441406 471.714844 L 54.28125 471.714844 C 33.984375 471.714844 17.53125 455.261719 17.53125 434.964844 L 17.53125 309.804688 C 17.53125 289.511719 33.984375 273.054688 54.28125 273.054688 Z M 54.28125 273.054688 " clip-rule="nonzero"/></clipPath><clipPath id="63c1672445"><path d="M 17.382812 273 L 35 273 L 35 291 L 17.382812 291 Z M 17.382812 273 " clip-rule="nonzero"/></clipPath><clipPath id="c16854e21e"><path d="M 16.632812 308.90625 L 16.632812 435.867188 C 16.632812 456.160156 33.085938 472.617188 53.382812 472.617188 L 180.339844 472.617188 C 200.636719 472.617188 217.089844 456.160156 217.089844 435.867188 L 217.089844 308.90625 C 217.089844 288.609375 200.636719 272.15625 180.339844 272.15625 L 53.382812 272.15625 C 33.085938 272.15625 16.632812 288.609375 16.632812 308.90625 Z M 16.632812 308.90625 " clip-rule="nonzero"/></clipPath><clipPath id="79c5ba4920"><path d="M 54.28125 273.054688 L 179.441406 273.054688 C 199.738281 273.054688 216.191406 289.511719 216.191406 309.804688 L 216.191406 434.964844 C 216.191406 455.261719 199.738281 471.714844 179.441406 471.714844 L 54.28125 471.714844 C 33.984375 471.714844 17.53125 455.261719 17.53125 434.964844 L 17.53125 309.804688 C 17.53125 289.511719 33.984375 273.054688 54.28125 273.054688 Z M 54.28125 273.054688 " clip-rule="nonzero"/></clipPath><clipPath id="ff216a71b6"><path d="M 198 454 L 216.882812 454 L 216.882812 472 L 198 472 Z M 198 454 " clip-rule="nonzero"/></clipPath><clipPath id="45fd6d18c7"><path d="M 16.632812 308.90625 L 16.632812 435.867188 C 16.632812 456.160156 33.085938 472.617188 53.382812 472.617188 L 180.339844 472.617188 C 200.636719 472.617188 217.089844 456.160156 217.089844 435.867188 L 217.089844 308.90625 C 217.089844 288.609375 200.636719 272.15625 180.339844 272.15625 L 53.382812 272.15625 C 33.085938 272.15625 16.632812 288.609375 16.632812 308.90625 Z M 16.632812 308.90625 " clip-rule="nonzero"/></clipPath><clipPath id="acb4bf0bfb"><path d="M 54.28125 273.054688 L 179.441406 273.054688 C 199.738281 273.054688 216.191406 289.511719 216.191406 309.804688 L 216.191406 434.964844 C 216.191406 455.261719 199.738281 471.714844 179.441406 471.714844 L 54.28125 471.714844 C 33.984375 471.714844 17.53125 455.261719 17.53125 434.964844 L 17.53125 309.804688 C 17.53125 289.511719 33.984375 273.054688 54.28125 273.054688 Z M 54.28125 273.054688 " clip-rule="nonzero"/></clipPath><clipPath id="631b1b631f"><path d="M 17.382812 454 L 35 454 L 35 472 L 17.382812 472 Z M 17.382812 454 " clip-rule="nonzero"/></clipPath><clipPath id="9cc05cdefe"><path d="M 16.632812 308.90625 L 16.632812 435.867188 C 16.632812 456.160156 33.085938 472.617188 53.382812 472.617188 L 180.339844 472.617188 C 200.636719 472.617188 217.089844 456.160156 217.089844 435.867188 L 217.089844 308.90625 C 217.089844 288.609375 200.636719 272.15625 180.339844 272.15625 L 53.382812 272.15625 C 33.085938 272.15625 16.632812 288.609375 16.632812 308.90625 Z M 16.632812 308.90625 " clip-rule="nonzero"/></clipPath><clipPath id="4c039ee413"><path d="M 54.28125 273.054688 L 179.441406 273.054688 C 199.738281 273.054688 216.191406 289.511719 216.191406 309.804688 L 216.191406 434.964844 C 216.191406 455.261719 199.738281 471.714844 179.441406 471.714844 L 54.28125 471.714844 C 33.984375 471.714844 17.53125 455.261719 17.53125 434.964844 L 17.53125 309.804688 C 17.53125 289.511719 33.984375 273.054688 54.28125 273.054688 Z M 54.28125 273.054688 " clip-rule="nonzero"/></clipPath><clipPath id="396e78dafc"><path d="M 16.632812 272.15625 L 216.882812 272.15625 L 216.882812 472.40625 L 16.632812 472.40625 Z M 16.632812 272.15625 " clip-rule="nonzero"/></clipPath><clipPath id="c848b64be3"><path d="M 16.632812 308.90625 L 16.632812 435.867188 C 16.632812 456.160156 33.085938 472.617188 53.382812 472.617188 L 180.339844 472.617188 C 200.636719 472.617188 217.089844 456.160156 217.089844 435.867188 L 217.089844 308.90625 C 217.089844 288.609375 200.636719 272.15625 180.339844 272.15625 L 53.382812 272.15625 C 33.085938 272.15625 16.632812 288.609375 16.632812 308.90625 Z M 16.632812 308.90625 " clip-rule="nonzero"/></clipPath><clipPath id="32b5b88407"><path d="M 16.632812 308.90625 L 16.632812 435.859375 C 16.632812 456.152344 33.085938 472.605469 53.378906 472.605469 L 180.332031 472.605469 C 200.628906 472.605469 217.082031 456.152344 217.082031 435.859375 L 217.082031 308.90625 C 217.082031 288.609375 200.628906 272.15625 180.332031 272.15625 L 53.378906 272.15625 C 33.085938 272.15625 16.632812 288.609375 16.632812 308.90625 Z M 16.632812 308.90625 " clip-rule="nonzero"/></clipPath><clipPath id="865178852c"><path d="M 47.222656 360.628906 L 121.996094 360.628906 L 121.996094 462.679688 L 47.222656 462.679688 Z M 47.222656 360.628906 " clip-rule="nonzero"/></clipPath><clipPath id="f53d23728c"><path d="M 87.066406 361.914062 L 121.375 401.40625 C 121.8125 401.910156 121.917969 402.625 121.640625 403.234375 C 121.363281 403.84375 120.753906 404.238281 120.085938 404.238281 L 105.007812 404.238281 C 102.9375 404.238281 101.257812 405.914062 101.257812 407.988281 L 101.257812 458.929688 C 101.257812 461 99.578125 462.679688 97.507812 462.679688 L 71.707031 462.679688 C 69.636719 462.679688 67.957031 461 67.957031 458.929688 L 67.957031 407.988281 C 67.957031 405.914062 66.277344 404.238281 64.207031 404.238281 L 49.132812 404.238281 C 48.460938 404.238281 47.855469 403.84375 47.578125 403.234375 C 47.300781 402.625 47.402344 401.910156 47.84375 401.40625 L 82.148438 361.914062 C 82.769531 361.203125 83.664062 360.792969 84.609375 360.792969 C 85.550781 360.792969 86.449219 361.203125 87.066406 361.914062 Z M 87.066406 361.914062 " clip-rule="nonzero"/></clipPath><clipPath id="36436696fa"><path d="M 0.28125 0.71875 L 74.921875 0.71875 L 74.921875 102.679688 L 0.28125 102.679688 Z M 0.28125 0.71875 " clip-rule="nonzero"/></clipPath><clipPath id="bef11d9d32"><path d="M 40.066406 1.914062 L 74.375 41.40625 C 74.8125 41.910156 74.917969 42.625 74.640625 43.234375 C 74.363281 43.84375 73.753906 44.238281 73.085938 44.238281 L 58.007812 44.238281 C 55.9375 44.238281 54.257812 45.914062 54.257812 47.988281 L 54.257812 98.929688 C 54.257812 101 52.578125 102.679688 50.507812 102.679688 L 24.707031 102.679688 C 22.636719 102.679688 20.957031 101 20.957031 98.929688 L 20.957031 47.988281 C 20.957031 45.914062 19.277344 44.238281 17.207031 44.238281 L 2.132812 44.238281 C 1.460938 44.238281 0.855469 43.84375 0.578125 43.234375 C 0.300781 42.625 0.402344 41.910156 0.84375 41.40625 L 35.148438 1.914062 C 35.769531 1.203125 36.664062 0.792969 37.609375 0.792969 C 38.550781 0.792969 39.449219 1.203125 40.066406 1.914062 Z M 40.066406 1.914062 " clip-rule="nonzero"/></clipPath><clipPath id="366dcc3514"><rect x="0" width="75" y="0" height="103"/></clipPath><clipPath id="4fafe38ce5"><path d="M 118 297.5625 L 194.859375 297.5625 L 194.859375 462.679688 L 118 462.679688 Z M 118 297.5625 " clip-rule="nonzero"/></clipPath><clipPath id="42a116e654"><path d="M 158.914062 298.753906 L 194.25 338.3125 C 194.691406 338.804688 194.800781 339.511719 194.53125 340.117188 C 194.261719 340.71875 193.660156 341.109375 193 341.109375 L 177.921875 341.109375 C 175.851562 341.109375 174.171875 342.789062 174.171875 344.859375 L 174.171875 458.929688 C 174.171875 461 172.492188 462.679688 170.421875 462.679688 L 142.40625 462.679688 C 140.335938 462.679688 138.65625 461 138.65625 458.929688 L 138.65625 344.859375 C 138.65625 342.789062 136.976562 341.109375 134.90625 341.109375 L 119.832031 341.109375 C 119.167969 341.109375 118.570312 340.71875 118.300781 340.117188 C 118.027344 339.511719 118.140625 338.804688 118.578125 338.3125 L 153.917969 298.753906 C 154.550781 298.042969 155.460938 297.636719 156.414062 297.636719 C 157.367188 297.636719 158.277344 298.042969 158.914062 298.753906 Z M 158.914062 298.753906 " clip-rule="nonzero"/></clipPath><clipPath id="fc19aef1c8"><path d="M 0 0.601562 L 76.859375 0.601562 L 76.859375 165.679688 L 0 165.679688 Z M 0 0.601562 " clip-rule="nonzero"/></clipPath><clipPath id="122291850d"><path d="M 40.914062 1.753906 L 76.25 41.3125 C 76.691406 41.804688 76.800781 42.511719 76.53125 43.117188 C 76.261719 43.71875 75.660156 44.109375 75 44.109375 L 59.921875 44.109375 C 57.851562 44.109375 56.171875 45.789062 56.171875 47.859375 L 56.171875 161.929688 C 56.171875 164 54.492188 165.679688 52.421875 165.679688 L 24.40625 165.679688 C 22.335938 165.679688 20.65625 164 20.65625 161.929688 L 20.65625 47.859375 C 20.65625 45.789062 18.976562 44.109375 16.90625 44.109375 L 1.832031 44.109375 C 1.167969 44.109375 0.570312 43.71875 0.300781 43.117188 C 0.0273438 42.511719 0.140625 41.804688 0.578125 41.3125 L 35.917969 1.753906 C 36.550781 1.042969 37.460938 0.636719 38.414062 0.636719 C 39.367188 0.636719 40.277344 1.042969 40.914062 1.753906 Z M 40.914062 1.753906 " clip-rule="nonzero"/></clipPath><clipPath id="f15ab7e056"><rect x="0" width="77" y="0" height="166"/></clipPath></defs><g transform="matrix(1, 0, 0, 1, 230, 274)"><g clip-path="url(#b45f4398a6)"><g fill="#0d2a66" fill-opacity="1"><g transform="translate(4.027111, 143.500177)"><g><path d="M 26.390625 -97.53125 L 26.390625 -35.359375 C 26.390625 -27.972656 28.328125 -22.40625 32.203125 -18.65625 C 36.085938 -14.914062 41.492188 -13.046875 48.421875 -13.046875 C 55.429688 -13.046875 60.878906 -14.914062 64.765625 -18.65625 C 68.648438 -22.40625 70.59375 -27.972656 70.59375 -35.359375 L 70.59375 -97.53125 L 86.59375 -97.53125 L 86.59375 -35.640625 C 86.59375 -27.691406 84.859375 -20.957031 81.390625 -15.4375 C 77.929688 -9.914062 73.300781 -5.796875 67.5 -3.078125 C 61.695312 -0.367188 55.289062 0.984375 48.28125 0.984375 C 41.257812 0.984375 34.867188 -0.367188 29.109375 -3.078125 C 23.359375 -5.796875 18.800781 -9.914062 15.4375 -15.4375 C 12.070312 -20.957031 10.390625 -27.691406 10.390625 -35.640625 L 10.390625 -97.53125 Z M 26.390625 -97.53125 "/></g></g></g><g fill="#0d2a66" fill-opacity="1"><g transform="translate(100.858941, 143.500177)"><g><path d="M 26.53125 -65.96875 C 29.238281 -69.519531 32.929688 -72.507812 37.609375 -74.9375 C 42.285156 -77.375 47.570312 -78.59375 53.46875 -78.59375 C 60.207031 -78.59375 66.359375 -76.929688 71.921875 -73.609375 C 77.492188 -70.285156 81.867188 -65.628906 85.046875 -59.640625 C 88.222656 -53.660156 89.8125 -46.785156 89.8125 -39.015625 C 89.8125 -31.242188 88.222656 -24.296875 85.046875 -18.171875 C 81.867188 -12.046875 77.492188 -7.273438 71.921875 -3.859375 C 66.359375 -0.441406 60.207031 1.265625 53.46875 1.265625 C 47.570312 1.265625 42.332031 0.0703125 37.75 -2.3125 C 33.164062 -4.695312 29.425781 -7.671875 26.53125 -11.234375 L 26.53125 36.765625 L 10.53125 36.765625 L 10.53125 -77.328125 L 26.53125 -77.328125 Z M 73.546875 -39.015625 C 73.546875 -44.347656 72.441406 -48.953125 70.234375 -52.828125 C 68.035156 -56.710938 65.132812 -59.660156 61.53125 -61.671875 C 57.9375 -63.691406 54.082031 -64.703125 49.96875 -64.703125 C 45.9375 -64.703125 42.117188 -63.671875 38.515625 -61.609375 C 34.921875 -59.546875 32.023438 -56.550781 29.828125 -52.625 C 27.628906 -48.695312 26.53125 -44.066406 26.53125 -38.734375 C 26.53125 -33.398438 27.628906 -28.742188 29.828125 -24.765625 C 32.023438 -20.796875 34.921875 -17.78125 38.515625 -15.71875 C 42.117188 -13.65625 45.9375 -12.625 49.96875 -12.625 C 54.082031 -12.625 57.9375 -13.675781 61.53125 -15.78125 C 65.132812 -17.894531 68.035156 -20.960938 70.234375 -24.984375 C 72.441406 -29.003906 73.546875 -33.679688 73.546875 -39.015625 Z M 73.546875 -39.015625 "/></g></g></g><g fill="#0d2a66" fill-opacity="1"><g transform="translate(196.006746, 143.500177)"><g><path d="M 78.734375 -68.484375 C 78.734375 -63.523438 77.5625 -58.847656 75.21875 -54.453125 C 72.882812 -50.054688 69.144531 -46.476562 64 -43.71875 C 58.851562 -40.957031 52.253906 -39.578125 44.203125 -39.578125 L 26.53125 -39.578125 L 26.53125 0 L 10.53125 0 L 10.53125 -97.53125 L 44.203125 -97.53125 C 51.691406 -97.53125 58.03125 -96.242188 63.21875 -93.671875 C 68.414062 -91.097656 72.300781 -87.613281 74.875 -83.21875 C 77.445312 -78.820312 78.734375 -73.910156 78.734375 -68.484375 Z M 44.203125 -52.625 C 50.285156 -52.625 54.820312 -54.003906 57.8125 -56.765625 C 60.8125 -59.523438 62.3125 -63.429688 62.3125 -68.484375 C 62.3125 -79.148438 56.273438 -84.484375 44.203125 -84.484375 L 26.53125 -84.484375 L 26.53125 -52.625 Z M 44.203125 -52.625 "/></g></g></g><g fill="#0d2a66" fill-opacity="1"><g transform="translate(279.506694, 143.500177)"><g><path d="M 5.1875 -39.015625 C 5.1875 -46.785156 6.800781 -53.660156 10.03125 -59.640625 C 13.257812 -65.628906 17.65625 -70.285156 23.21875 -73.609375 C 28.789062 -76.929688 34.945312 -78.59375 41.6875 -78.59375 C 47.757812 -78.59375 53.066406 -77.398438 57.609375 -75.015625 C 62.148438 -72.628906 65.773438 -69.660156 68.484375 -66.109375 L 68.484375 -77.328125 L 84.625 -77.328125 L 84.625 0 L 68.484375 0 L 68.484375 -11.515625 C 65.773438 -7.859375 62.082031 -4.8125 57.40625 -2.375 C 52.726562 0.0507812 47.394531 1.265625 41.40625 1.265625 C 34.757812 1.265625 28.675781 -0.441406 23.15625 -3.859375 C 17.632812 -7.273438 13.257812 -12.046875 10.03125 -18.171875 C 6.800781 -24.296875 5.1875 -31.242188 5.1875 -39.015625 Z M 68.484375 -38.734375 C 68.484375 -44.066406 67.382812 -48.695312 65.1875 -52.625 C 62.988281 -56.550781 60.109375 -59.546875 56.546875 -61.609375 C 52.992188 -63.671875 49.160156 -64.703125 45.046875 -64.703125 C 40.929688 -64.703125 37.09375 -63.691406 33.53125 -61.671875 C 29.976562 -59.660156 27.101562 -56.710938 24.90625 -52.828125 C 22.707031 -48.953125 21.609375 -44.347656 21.609375 -39.015625 C 21.609375 -33.679688 22.707031 -29.003906 24.90625 -24.984375 C 27.101562 -20.960938 30.003906 -17.894531 33.609375 -15.78125 C 37.210938 -13.675781 41.023438 -12.625 45.046875 -12.625 C 49.160156 -12.625 52.992188 -13.65625 56.546875 -15.71875 C 60.109375 -17.78125 62.988281 -20.796875 65.1875 -24.765625 C 67.382812 -28.742188 68.484375 -33.398438 68.484375 -38.734375 Z M 68.484375 -38.734375 "/></g></g></g><g fill="#0d2a66" fill-opacity="1"><g transform="translate(374.654499, 143.500177)"><g><path d="M 29.1875 -64.28125 L 29.1875 -21.46875 C 29.1875 -18.570312 29.863281 -16.488281 31.21875 -15.21875 C 32.582031 -13.957031 34.898438 -13.328125 38.171875 -13.328125 L 48 -13.328125 L 48 0 L 35.359375 0 C 28.160156 0 22.640625 -1.679688 18.796875 -5.046875 C 14.960938 -8.421875 13.046875 -13.894531 13.046875 -21.46875 L 13.046875 -64.28125 L 3.921875 -64.28125 L 3.921875 -77.328125 L 13.046875 -77.328125 L 13.046875 -96.5625 L 29.1875 -96.5625 L 29.1875 -77.328125 L 48 -77.328125 L 48 -64.28125 Z M 29.1875 -64.28125 "/></g></g></g><g fill="#0d2a66" fill-opacity="1"><g transform="translate(426.859498, 143.500177)"><g><path d="M 50.53125 -78.59375 C 56.414062 -78.59375 61.675781 -77.328125 66.3125 -74.796875 C 70.945312 -72.273438 74.597656 -68.535156 77.265625 -63.578125 C 79.929688 -58.617188 81.265625 -52.628906 81.265625 -45.609375 L 81.265625 0 L 65.40625 0 L 65.40625 -43.21875 C 65.40625 -50.144531 63.671875 -55.457031 60.203125 -59.15625 C 56.742188 -62.851562 52.019531 -64.703125 46.03125 -64.703125 C 40.039062 -64.703125 35.289062 -62.851562 31.78125 -59.15625 C 28.28125 -55.457031 26.53125 -50.144531 26.53125 -43.21875 L 26.53125 0 L 10.53125 0 L 10.53125 -103.859375 L 26.53125 -103.859375 L 26.53125 -68.34375 C 29.238281 -71.625 32.671875 -74.148438 36.828125 -75.921875 C 40.992188 -77.703125 45.5625 -78.59375 50.53125 -78.59375 Z M 50.53125 -78.59375 "/></g></g></g></g></g><g clip-path="url(#6b23b221c5)"><g clip-path="url(#dfa78d3148)"><g clip-path="url(#d8829c6bfa)"><path fill="#0d2a66" d="M 211.09375 290.523438 L 217.082031 290.523438 L 217.082031 454.238281 L 211.09375 454.238281 Z M 211.09375 290.523438 " fill-opacity="1" fill-rule="nonzero"/></g></g></g><g clip-path="url(#48b8c0d6ee)"><g clip-path="url(#6e75f4d834)"><g clip-path="url(#13013835e3)"><path fill="#0d2a66" d="M 16.632812 290.523438 L 22.621094 290.523438 L 22.621094 454.238281 L 16.632812 454.238281 Z M 16.632812 290.523438 " fill-opacity="1" fill-rule="nonzero"/></g></g></g><g clip-path="url(#14f63c262c)"><g clip-path="url(#4ee03913f1)"><g clip-path="url(#de69347397)"><path fill="#0d2a66" d="M 35 272.15625 L 198.714844 272.15625 L 198.714844 278.144531 L 35 278.144531 Z M 35 272.15625 " fill-opacity="1" fill-rule="nonzero"/></g></g></g><g clip-path="url(#fb6a9421e5)"><g clip-path="url(#96597a07b1)"><g clip-path="url(#d2b6fa4117)"><path fill="#0d2a66" d="M 35 466.617188 L 198.714844 466.617188 L 198.714844 472.605469 L 35 472.605469 Z M 35 466.617188 " fill-opacity="1" fill-rule="nonzero"/></g></g></g><g clip-path="url(#59c1ffb06f)"><g clip-path="url(#437ef90f7f)"><g clip-path="url(#dd6ff23a8d)"><path fill="#0d2a66" d="M 211.09375 278.144531 L 211.09375 290.523438 L 217.082031 290.523438 L 217.082031 272.15625 L 198.714844 272.15625 L 198.714844 278.144531 Z M 211.09375 278.144531 " fill-opacity="1" fill-rule="nonzero"/></g></g></g><g clip-path="url(#63c1672445)"><g clip-path="url(#c16854e21e)"><g clip-path="url(#79c5ba4920)"><path fill="#0d2a66" d="M 22.621094 278.144531 L 35 278.144531 L 35 272.15625 L 16.632812 272.15625 L 16.632812 290.523438 L 22.621094 290.523438 Z M 22.621094 278.144531 " fill-opacity="1" fill-rule="nonzero"/></g></g></g><g clip-path="url(#ff216a71b6)"><g clip-path="url(#45fd6d18c7)"><g clip-path="url(#acb4bf0bfb)"><path fill="#0d2a66" d="M 211.09375 466.617188 L 198.714844 466.617188 L 198.714844 472.605469 L 217.082031 472.605469 L 217.082031 454.238281 L 211.09375 454.238281 Z M 211.09375 466.617188 " fill-opacity="1" fill-rule="nonzero"/></g></g></g><g clip-path="url(#631b1b631f)"><g clip-path="url(#9cc05cdefe)"><g clip-path="url(#4c039ee413)"><path fill="#0d2a66" d="M 22.621094 466.617188 L 22.621094 454.238281 L 16.632812 454.238281 L 16.632812 472.605469 L 35 472.605469 L 35 466.617188 Z M 22.621094 466.617188 " fill-opacity="1" fill-rule="nonzero"/></g></g></g><g clip-path="url(#396e78dafc)"><g clip-path="url(#c848b64be3)"><g clip-path="url(#32b5b88407)"><path stroke-linecap="butt" transform="matrix(0.75, 0, 0, 0.75, 16.632175, 272.156491)" fill="none" stroke-linejoin="miter" d="M 0.000850031 48.999682 L 0.000850031 218.270523 C 0.000850031 245.327816 21.938351 267.265318 48.995644 267.265318 L 218.266486 267.265318 C 245.328987 267.265318 267.266488 245.327816 267.266488 218.270523 L 267.266488 48.999682 C 267.266488 21.93718 245.328987 -0.000320712 218.266486 -0.000320712 L 48.995644 -0.000320712 C 21.938351 -0.000320712 0.000850031 21.93718 0.000850031 48.999682 Z M 0.000850031 48.999682 " stroke="#0d2a66" stroke-width="28" stroke-opacity="1" stroke-miterlimit="4"/></g></g></g><g clip-path="url(#865178852c)"><g clip-path="url(#f53d23728c)"><g transform="matrix(1, 0, 0, 1, 47, 360)"><g clip-path="url(#366dcc3514)"><g clip-path="url(#36436696fa)"><g clip-path="url(#bef11d9d32)"><path fill="#44a9ed" d="M 76.835938 102.679688 L -1.617188 102.679688 L -1.617188 -0.902344 L 76.835938 -0.902344 Z M 76.835938 102.679688 " fill-opacity="1" fill-rule="nonzero"/></g></g></g></g></g></g><g clip-path="url(#4fafe38ce5)"><g clip-path="url(#42a116e654)"><g transform="matrix(1, 0, 0, 1, 118, 297)"><g clip-path="url(#f15ab7e056)"><g clip-path="url(#fc19aef1c8)"><g clip-path="url(#122291850d)"><path fill="#0d2a66" d="M 78.75 165.679688 L -1.917969 165.679688 L -1.917969 -1.011719 L 78.75 -1.011719 Z M 78.75 165.679688 " fill-opacity="1" fill-rule="nonzero"/></g></g></g></g></g></g></svg>